<?xml version="1.0" encoding="UTF-8"?>
<svg id="Calque_1" xmlns="http://www.w3.org/2000/svg" version="1.1" viewBox="0 0 1120.9 402.8">
  <!-- Generator: Adobe Illustrator 29.2.1, SVG Export Plug-In . SVG Version: 2.1.0 Build 116)  -->
  <defs>
    <style>
      .st0 {
        fill: #fff;
      }
    </style>
  </defs>
  <g>
    <path class="st0" d="M463.8,68.3c-1.3,0-2.6.1-3.8.5-19.3,4.7-38.5,10.1-57.2,16.9-14,5-27.6,11.2-40,19.4-5,3.4-9.9,7-14.5,11-1.1.9-2.3,1.9-2.6,3.4,1.5,9,10,13.9,17.5,17.6,12.2,5.6,25.9,8.8,39.4,7.3-4-3.4-9.6-3.9-13.8-6.9-1.7-1.3-1.8-3.6-2.2-5.5-4.1.8-8.1,2.4-12.1,3.4,3.8-2.3,7.9-4,11.8-6.1,21-9,43.6-12.9,66.1-15.9,15.7-1.7,31.7-2.2,46.8-7-1.2-3.4-1.9-8.4-6.2-8.9-9.4-4.9-14-15.1-19.4-23.7-2-3.5-5.8-5.4-9.7-5.5Z"/>
    <path class="st0" d="M657.8,68.3c-3,0-6,.8-8.1,3-3,3.2-4.8,7.2-7.1,10.9-3.3,5.8-7.6,11.1-13.3,14.7-1.5,1-3.7.8-4.5,2.5-1.3,2.1-2.1,4.6-2.6,7,15.2,4.5,31.1,5,46.7,6.9,24.8,3.1,49.8,7.7,72.4,18.8,1.9,1,3.9,2.1,5.8,3.1-4.1-1.1-8.1-2.4-12.2-3.6-.7,2-.7,4.6-2.7,5.9-4.2,2.8-9.6,3.3-13.4,6.7,6.4.9,12.9.3,19.3-.9,12.3-2.4,24.9-7,33.9-16.1h.1c2-2.6,3.1-5.8,3.5-9.1-14.4-13.4-31.9-23.2-50.2-30.2-20.6-7.9-41.9-14-63.3-19.3-1.3-.4-2.6-.6-4-.6h0Z"/>
    <path class="st0" d="M560.6,0c-.9,0-1.7.5-1.9,1.7-3.6,11.7-6.7,23.9-13.4,34.3-2.4,3.8-5.9,6.9-9.9,9.1-9.5,5.4-20.1,8.4-30.5,11.7-1.6.4-3,1.5-4.1,2.7,1.2,1,2.4,2,4,2.5,11.2,3.6,22.8,6.7,32.8,13.1,5.9,3.7,9.4,10,12.3,16.1h0c3.7,8.5,6.2,17.5,9,26.4.8,2.6,3.8,1.1,3.9-1,2.3-8.5,5.2-16.9,8.3-25.1l-.2-.6.7-.2c1.9-3.2,3.4-6.7,5.7-9.6,2.9-4,7.2-6.6,11.4-8.9,1.5-.7,3.1-1.5,4.7-2.2,7.5-3.1,15.2-5.5,22.9-7.8,1.5-.7,4.1-1.1,3.6-3.3-1.4-1.2-3.1-1.8-4.8-2.3-10.1-3.1-20.4-6.1-29.6-11.5-4-2.2-7.4-5.4-9.7-9.3-6.5-10.3-9.7-22.3-13.2-33.9-.2-1.1-1-1.7-1.9-1.8h0Z"/>
  </g>
  <g>
    <path class="st0" d="M107.2,77.1c-7.1,0-14.2.6-21.2,2-24.3,4.9-46.2,19.3-61.2,38.8-8.3,10.8-14.8,23.1-18.9,36.1C1.5,167.5-.5,181.8,0,196c.3,7.5,1.2,15,3,22.4,1.2,5.5,2.9,10.9,4.9,16.2h.1c2.9,7.9,6.8,15.3,11.3,22.4.7.7,1,2.2,2.1,2.2h-.5c6.2,9.1,13.7,17.1,22.2,24h.3c7.9,6.6,17,11.7,26.6,15.4,13.5,5.4,28.3,7.4,42.8,6.7,23.6-.9,47.7-5.5,68.1-17.9,6.2-3.2,11.9-7.8,16.7-12.9,0-5,0-10,0-15,0-7.9.1-15.8,0-23.6.3-5.2-.5-10.5,1.6-15.4l-.2.2c2.1-3.9,5.4-7.3,9.5-9.2,3.7-2,8.3-2,11.6-4.8,0-.6-.1-1.7-.1-2.2-2.7-.4-5.5-.2-8.2-.2-33.3,0-66.6,0-100,0-2-.5-4.5,1.3-2.9,3.4,2.4,2.3,5.9,2.6,8.9,3.6,9,1.9,17.8,6.1,23.4,13.5,1.8,3.4,3.6,7,3.6,11,.1,11.7,0,23.5,0,35.2-.4,6-.5,12.3-3,17.8-4.7,5.2-12.4,3-18.6,3.3-10.6-1.6-20.6-6.4-28.6-13.5-7.4-6.6-13.4-14.7-18.1-23.4-4.2-7.9-7.3-16.4-9.7-25-1.2-5-2.2-10.1-3.1-15.2-1.1-9.1-1.6-18.3-1.2-27.5.7-11.5,2.6-23,5.8-34h.1c3.6-12.1,9.2-23.6,16.7-33.7,4.9-5.9,10.2-11.6,16.7-15.8,10.7-7.2,24.3-10.3,36.9-7.2,13.6,3.1,24.9,12.4,33.3,23.3,5.4,7.3,9.8,15.4,13.2,23.8,1.5,3.9,2.9,7.9,4,12,.8,2.5,1.1,5.3,3.1,7.2,3.4-6.3,2.7-13.7,3.4-20.5.4-6.9.6-13.8.6-20.6-.3-6.9.1-14.1-2.1-20.7-12.4.3-24.2-4.2-35-10.1-15.9-8.9-34.1-13.6-52.3-13.7h0Z"/>
    <path class="st0" d="M211.7,148.8c-.6,0-1.1,0-1.7,0,4.4,4.4,10.4,7.4,13.4,13.1,4.3,8.1,4.3,17.6,4.1,26.5.1,7.6,0,15.2,0,22.7,0,8.1,0,16.3,0,24.4,4.2-4.1,8.7-8,13.5-11.4,6.6-4.8,13.7-8.9,21.1-12.4,0-7.4,0-14.9,0-22.3.1-4.3-.2-8.5.1-12.8.5-4,4.5-7,8.4-6.6,8.3,0,16.6,0,24.9,0,6.9.2,13.4,3.3,18.6,7.8,6.3,5.9,10.7,13.7,13.5,21.9.3-.3.8-1,1.1-1.3,1-6.9-.2-14-1.3-20.9-1.4-6.6-3.3-13-5.5-19.4-24.1,0-48.4.3-72.4-2.4-11.1-1.5-22-3.9-32.9-6.3-1.7-.4-3.4-.6-5.1-.6h0Z"/>
    <path class="st0" d="M305.1,207.2c-2.5,0-5,.3-7.3.5-24.1,3.1-47.2,13.2-66.1,28.5-6.3,5.5-12.1,11.7-17,18.6-4.1,5.9-7.8,12-10.7,18.6,7-4.6,14.2-8.7,21.6-12.5.6-.3,1.2-.5,1.8-.8,0,1.2,0,2.4,0,3.6.5,6.1-.8,12.2-2.9,17.9l.3.7-.8.2c-4.3,8.5-12,14.5-18.9,20.7,5.3.2,10.4-1.5,15.6-2.5,13.8-3,28-4,42.1-4,21.8,0,43.5,0,65.3,0,2.8-7.1,4.8-14.4,6.4-21.8,1-5.8,1.6-11.6,1.5-17.4-.1-1.5,0-3.7-1.7-4.2-2.7,7.8-7.1,15.1-12.9,21-6.1,5.9-14.2,9.7-22.8,9.9-9.6,0-19.3,0-28.9,0-2.4.1-4.3-1.4-6-2.8-.8-1.8-1.6-3.7-1.5-5.8,0-5.2,0-10.4,0-15.6,0-4.4,0-8.8,0-13.2,1.5-.4,3.1-.8,4.6-1.2,3.4-.8,6.7-1.5,10.1-2.1,17.4-3.1,35.2-4.5,52.9-4.6,1,0,2-.2,3-.5-1.1-3-3-5.6-5.7-7.4-3.2-1.9-7-2.7-10.1-4.7-4.9-4.2-4-11.4-2.9-17-2.7-1.8-5.8-2.2-9-2.2h0Z"/>
    <path class="st0" d="M461.3,158.1c-10.2,0-20.5,0-30.7.1-1.5,3,2.7,3.8,4.6,4.9,7.4,3.2,9.2,12.1,8.6,19.4,0,4.6,0,9.1,0,13.7,0,12.3,0,24.6,0,36.9,0,3.7,0,7.3,0,11-1.5-1.9-3.1-3.9-4.6-5.8-6-7.8-12.1-15.4-18-23.1-3.7-4.7-7.4-9.4-11.1-14.2-3.4-4.4-6.8-8.7-10.2-13.1-7.7-9.9-15.5-19.8-23.2-29.7-12.4,0-24.8-.1-37.1,0v2.3c3,2.4,7.4,3.1,9.6,6.6,4.9,6,3.2,14.1,3.6,21.3,0,6.4,0,12.7,0,19.1,0,5.7,0,11.4,0,17.1,0,5.6,0,11.1,0,16.7,0,8.1,0,16.2,0,24.4-.1,6,.7,12.1-1.1,18-1.2,2.3-2.4,4.6-4.4,6.2-2.1,1.8-4.9,2.5-7.2,4-1.1.6-.6,2-.6,3,20.5-.1,41,.1,61.4,0,.7-3.2-3-3.9-5.1-5.1-4-1.7-6.3-5.5-7.7-9.4-1.2-6.8-.4-13.7-.7-20.5,0-6.9,0-13.8,0-20.7,0-4.4,0-8.9,0-13.3,0-3.7,0-7.5,0-11.2,0-5.1,0-10.1,0-15.2v-2c0,0,.3-.2.4-.3,2,3,4.3,5.8,6.5,8.6,2.5,3.2,5,6.5,7.6,9.7,4.7,6,9.3,12,14,17.9,3.9,5.1,7.9,10.2,11.9,15.2,6,7.6,11.8,15.4,17.9,22.8,5,6.7,10.3,13.2,15.4,19.9,2.9,3.7,6.1,7.1,9.5,10.3,5.3,4.5,11.9,7.9,18.9,8.3-1-3.4-3.4-6-4.9-9.1l-.7-.3.3-.4c-1.2-4.4-3.1-8.5-3.9-13-.7-3.9-1.2-7.9-1.5-11.8-.4-7.9-.2-15.9-.3-23.8,0-8.8,0-17.6,0-26.4.1-8.2,0-41.6,0-46.9-.2-6.4,2-13.7,8.2-16.6,2.1-1.3,5.8-1.8,5.4-5.1-10.2,0-20.5-.1-30.7-.1h0Z"/>
    <path class="st0" d="M555.5,128.4c-2.8,0-5.7.2-8.5.7-14,2-27.4,9.4-35.6,21-3,4.4-5.3,9.3-6.6,14.4h0c-2.5,10-1.2,20.6,2.2,30.1h.1c2.3,6.5,6.1,12.4,10.8,17.5h.2c6,5.9,13.1,10.5,20,15.1,14.2,10.3,29.2,19.5,43.1,30.2,3.9,3.6,6.6,8.3,7.4,13.5.1,4.5-.4,9.1-2.1,13.3-2.3,5-6.4,9.2-11.4,11.5-5.8,2.9-12.5,2.7-18.8,1.9-3-.5-5.9-1.1-8.9-1.9-5.7-1.8-11.1-4.5-16.1-7.8-1.7-1.3-3.4-2.7-5.1-4.1l-2.4-2.1c-1.5-1.6-3-3.1-4.5-4.7-3.1-3.6-6-7.4-8.6-11.5-4.2-6.1-6.8-13.1-11.3-19-1.7,6.1-1.7,12.6-1.8,18.9,0,1.9,0,3.9.2,5.8.3,5.7,1.1,11.4,2.3,16.9,1.8,7,4.4,14.1,9.5,19.4,7.4-4.5,16.8-3.9,24.7-1.1,13,4.2,26.8,5.1,40.4,3.7,6.3-.6,12.4-2.2,18.3-4.4,8-3.4,15.1-8.8,20.1-16,4.5-6.7,7.3-14.4,8.2-22.4h.1c.6-4.3.7-8.7.7-13.1-.3-9.4-2.6-18.7-7.6-26.7-3.1-4.8-6.9-9.1-11-13-10-8.4-21.2-15.4-31.9-22.9-9.7-6.7-19.7-13.1-29.2-20.1-5.7-4.6-9.7-11.7-8.4-19.2,1-4.1,3-8.2,6.7-10.6,6.3-4.3,14.5-4.4,21.8-3.7,9.4,1,18.2,5.7,24.2,13.1h0c3.9,4.7,6.1,10.5,9.6,15.3,6.9,5,14.2,10.1,22.5,12.5.1-4.2-1.6-8.1-3-11.9-2.2-5.7-4.4-11.3-7-16.8-3.1-6.5-6.8-12.7-10.7-18.7-5.6,2.7-12,1.5-17.8.2-8.3-1.8-16.9-3.5-25.4-3.4h0Z"/>
    <path class="st0" d="M689.2,158.1c-20.5.2-41-.2-61.5.2-.2,3.8,4.3,4,6.6,5.7,6.1,3.8,7.5,11.6,7,18.2,0,5.5,0,11,0,16.5v.6c-.1,2.2-.1,4.4,0,6.6,0,8.4,0,16.9,0,25.4,0,3.4-.2,6.9.3,10.3v-.7c0,.4.2,1.3.3,1.8-.1.2-.4.6-.5.8-.3,6.9,0,13.8-.2,20.7,0,5,0,10,0,15.1-.2,5.1-1.9,9.9-3.7,14.6l.2.7h-.6c-3.7,6.7-9.1,12.1-14.5,17.2,17,.4,31.4-10,47.7-13.2,6.3-1,12.6-1.9,19-1.8,1.1-3.1-2.7-4-4.8-5.1-5.4-2.4-8.2-8.3-8.5-13.9,0-5,0-9.9,0-14.9,0-4.9.1-9.7,0-14.6,0-4.2,3.5-8.2,7.9-8.1,14.1,0,28.1-.2,42.2.1,1.1.6,2.3,1.2,3.5,1.5,2,2.2,2.5,5.1,3.1,7.9l-.6.6c.1.4.4,1.3.5,1.7-.7,2.3-.3,4.7-.3,7.1,0,6.1-.1,12.1,0,18.2-.3,5.7-2.9,11.8-8.3,14.2-2.1,1.2-5.9,1.8-5.2,5.1,20.5,0,41,.2,61.4,0,1.3-3-2.6-3.7-4.5-4.8-5.4-2.2-8.3-8-8.8-13.6,0-4.8,0-9.6,0-14.4.2-7.3.1-14.7,0-22,.2-8.3.1-16.6,0-24.9.3-11.3,0-22.5,0-33.8,0-4.6-.3-9.4,2-13.5,1.6-3.4,4.6-5.8,8-7.1,1.6-.8,4.6-1.9,3.2-4.2-20.5-.2-40.9-.2-61.4,0-.5,3.3,3.3,3.8,5.5,5.1,5.2,2.4,7.6,8.2,8.2,13.7-.2,10.4,0,20.9-.1,31.3.1,2.6-1.4,4.7-3.1,6.6-1.7.7-3.3,1.5-5.1,1.4-13,0-26.1,0-39.1,0-3.4.4-6.4-1.7-8.2-4.4-1.1-5.9-.4-11.8-.6-17.7,0-2.1,0-4.1,0-6.2,0-1.7,0-3.3,0-5-.6-7.1.7-16,7.8-19.6,2.1-1.4,6.7-1.9,5.4-5.4h0Z"/>
    <path class="st0" d="M804.9,207.2c-1.7,0-3.4,0-5.2.3-1.8.1-3.3,1-4.8,1.9.9,4.8,1.7,10.2-.9,14.6-1,1.9-3.2,2.8-4.5,4.4-4.7.4-9.9,3.3-12.2,7.8-.7.9-1.2,2.9.5,2.7,14.2.1,28.4.9,42.5,2.8,0-1.9,0-3.8,0-5.7,0-3.3,0-6.6,0-9.8,0-5.7,0-11.4,0-17-5.1-.9-10.2-1.9-15.4-1.9Z"/>
    <path class="st0" d="M864.9,227.1c0,8.7,0,17.4,0,26.1l.3-.5c14,5.6,27.4,12.4,40,20.7-4.3-10-10.5-19.1-17.6-27.3-6.5-7.4-14.2-13.7-22.6-18.9h0Z"/>
    <path class="st0" d="M822.4,158.1c-6.9,0-13.7,0-20.6.4,0,.5.1,1.5.1,1.9,5.4,2.9,12.2,2.8,16.8,7.2,4.5,3.4,5.9,9.3,5.3,14.7,0,15,0,30,0,44.9,0,8.5-.1,17.1,0,25.6-.2,3.5,0,6.9,0,10.4,0,5.4,0,10.7-.2,16.1-2,7.4-9.3,11.6-16.4,13-2.2.8-6.2.9-6,4.1,2.5.3,5,.3,7.5.1.7,0,2,0,2.7,0,22.7.4,45.4,0,68.1.2,1.5,0,4.5.4,3.8-2-2.8-2.2-6.6-2.3-9.8-3.5-4.7-1.4-8.8-4.5-11.4-8.7l-.8-.2.2-.8c-1.1-4.3-.8-8.7-.8-13.1,0-7.3,0-14.6,0-21.9,0-9.5,0-19,0-28.6,0-10.7,0-21.4,0-32,.3-4.8-.9-10,1.9-14.3,3.1-5.2,9-7.9,14.7-9.1,2.3-.8,6-.8,6.2-4-9-.8-18.1-.1-27.1-.4-11.4.1-22.9,0-34.3,0h0Z"/>
    <path class="st0" d="M1120.8,89.6c-8.6.9-17,3.6-25.5,5.2-23.2,5.2-46.4,10.3-69.5,15.5-1.3,0-3.7,1.8-1.8,3,5.4,2,11.8,2.5,15.9,7.1,5.6,5.2,6.3,13.1,5.9,20.3-.2,6.7,0,13.4,0,20.1-.2,10.6-.1,21.3,0,32-.2,6.5,0,13.1,0,19.6-10.1-8.5-20.2-17-30.4-25.5-10.5-8.9-21-17.6-31.5-26.4-12.7-10.7-25.5-21.4-38.2-32.1-13.6,2-27.2,4.1-40.8,6-2.1.7-6.6-.3-6.2,3.1,3.4,3.1,8.7,2.2,12.7,4.5,7,3,10.6,10.8,9.9,18.1,0,10.3,0,20.6,0,30.9,0,8.7,0,17.4,0,26.1,0,8,0,16,0,24,0,7,0,14.1,0,21.1.3,5.6,0,11.3-2.6,16.5-2.8,5.2-7.1,9.5-12.5,12-2.4,1.3-5.2,2-7.1,4-.9,2.4,2.3,2.1,3.8,2.2,6.1-.1,12.2.2,18.3-.2h.6c16,.4,32.1,0,48.1.2,8.7-.2,17.5.4,26.2-.3,1.6-1.9-1.1-3.1-2.4-3.8-5.2-2.3-10.3-5-13.9-9.5-4.2-5.3-6.2-12.1-5.6-18.9,0-5.4,0-10.9,0-16.3,0-9.6,0-19.2,0-28.9,0-8.1,0-16.2,0-24.3,0-5.3,0-10.5,0-15.8,4.4,3.6,8.6,7.3,13,10.9,6.9,5.8,13.7,11.6,20.6,17.4,12.6,10.7,25.4,21.3,38,32,0,.7,0,2.1,0,2.8.3,7.8,1.1,15.6,3.5,23.1,1.3,4.7,3,9.3,5.3,13.6,2.6,5.1,5.7,9.9,9.5,14.2,7.7,9.1,17.6,16.3,28.6,20.8,1.8.7,4.8,1.5,5.7-1,.8-10,.2-20,.3-30,.3-11.1,0-22.3,0-33.4,0-12.1.2-24.2-.2-36.2.5-14.1.2-28.2.1-42.4.2-16.1,0-32.2.1-48.2.4-11.5,8.1-21.6,17.6-27.5,1.7-1.6,5.3-2.6,4.5-5.5h0Z"/>
  </g>
  <g>
    <path class="st0" d="M263.8,341.6c-13.7.1-27.4,0-41.1,0,.2,2.5,3.2,2.3,5,3.2,4.2,1.2,7.9,5,7.8,9.6,0,11.7,0,23.4,0,35.1.2,4.6-3.5,8.5-7.8,9.7-1.8.9-4.7.7-5.1,3.2,13.7.3,27.5,0,41.2.2,1.7-.2,3.9.6,5-1.2-2.1-1.2-4.4-1.8-6.6-2.7-3.7-1.5-6.7-5.1-6.5-9.2,0-11,0-22,0-33-.2-3,.4-6.3,2.7-8.5,2.7-3.1,7.2-3.2,10.5-5.4-1.3-1.5-3.4-.9-5.1-1h0Z"/>
    <path class="st0" d="M349.1,341.5c-10.5.4-20.9,0-31.4.2l.3,1.6c4.3,1.6,9.1,4.1,9.6,9.3.3,12.3,0,24.6.1,36.9.2,4.5-3.3,8.3-7.4,9.6-2,.9-4.6.9-5.6,3.1,7,.7,14.1.1,21.1.3,2-.2,4.5.6,6.1-1-2.2-1.8-5.3-2.9-6.7-5.6-1.5-2.6-1.6-5.6-1.5-8.5,0-10.8,0-21.7,0-32.5,2.3,4.3,3.7,9.1,6.3,13.3l-.3.9c.3.4.9,1.2,1.2,1.6,4.5,10.7,9.5,21.3,14.1,32,2.9-1.4,4.5-4.4,5.8-7.2,5.9-13.1,11.7-26.3,17.6-39.4,0,10.8,0,21.5,0,32.3,0,3.4-.6,7.1-3.1,9.6-1.6,1.5-4.5,1.8-4.8,4.4,12,.2,24.1,0,36.2.1,1.7-.3,4,.7,5.1-1.2-3.1-1.8-6.9-2.1-9.6-4.4-2.2-1.8-3.6-4.6-3.5-7.4,0-11.7,0-23.4,0-35.1,0-4,2.3-8,6.1-9.5,1.6-.9,4-1.1,4.3-3.3-10.2-.2-20.4,0-30.6-.1-5,10.9-9.8,21.9-14.7,32.8-5-10.9-9.7-22-14.8-32.9h0Z"/>
    <path class="st0" d="M464.4,341.6c-1.4,0-2.8,0-4,.8,1.6,1.3,3.6,2,5.4,2.9,3.4,1.6,5.4,5.4,5.3,9.2,0,11.7,0,23.3,0,35,.2,4.6-3.4,8.5-7.6,9.7-1.8.9-4.9.7-5.2,3.3,15.3.1,30.6.1,45.9,0-.2-2.3-2.7-2.3-4.3-3-4-1-7.9-4.2-8.4-8.5-.3-4.1,0-8.2-.1-12.3,6.8,0,13.8.3,20.2-2.3,5.6-2.2,11.1-6,13.2-11.9,1.9-5,0-10.7-3.6-14.3-5.8-5.9-14.3-8.4-22.3-8.5-11,0-22,0-33,0-.5,0-.9,0-1.4,0h0ZM491.4,345.9c5.8.3,11,4.5,12.6,10.1,1.7,5.3-.3,11.3-4.4,14.9-1.2.6-2.4,1.4-3.5,2.2-1.5.5-3.1.9-4.7,1.1,0-9.5,0-18.9,0-28.3h0Z"/>
    <path class="st0" d="M604.6,340.2c.9,2,1.8,4.1,2.6,6.1-2.4,5.1-4.7,10.2-6.9,15.4-.4,1-.9,1.9-1.3,2.9-4.3,9.5-8.4,19-12.7,28.5-1.3,2.8-3.6,5.2-6.6,6.1-1.9.9-4.7.7-5.3,3.2,7.5.3,14.9,0,22.4.2,1.7-.2,4,.6,5.1-1.2-2.9-2.1-8.3-1.6-9-5.9.2-4.7,3.1-8.7,4.8-13,8.6.1,17.2,0,25.8,0,1.5,3.6,3.5,7.1,4.6,10.9.7,2.2-.5,4.8-2.8,5.4-2,1.1-5.3.8-5.9,3.5,13.6,0,27.2.2,40.8,0-.6-2.5-3.5-2.4-5.3-3.2-3.4-.9-5.7-3.8-6.9-6.9-7.7-17.4-15.5-34.7-23.2-52.1-6.7,0-13.5,0-20.2,0h0ZM610.5,353.5c3.4,7.7,6.9,15.4,10.3,23.2h-20.6c3.4-7.7,6.8-15.4,10.3-23.2Z"/>
    <path class="st0" d="M744.7,341.6c-6.9,0-13.7,1.6-19.7,5.1-7.9,4.5-14.1,12.6-15.2,21.8-.8,5.1.4,10.2,2.2,15,.2.3.7,1,1,1.3,5.4,10.6,17.2,16.9,28.9,17.7,10.1.7,21.4-1.7,28.4-9.6,2.5-3,5.1-6.4,4.9-10.5-2.5,2.4-4,5.7-6.8,7.8-8.4,7-21.9,6.1-29.6-1.5-10.3-9.9-8.9-29.2,2.7-37.5,7.3-5.2,18.2-4.1,24.5,2.3,3,2.7,4.5,6.4,6.8,9.5.9-5.9.5-12-.6-17.8-2.4.2-4.7.8-7.1.9-2.8-.5-5.3-1.8-8-2.6-3.9-1.2-8.1-1.8-12.2-1.8Z"/>
    <path class="st0" d="M829.3,341.6c0,6.1,0,12.3,0,18.4,1.2.1,2.4,0,2.7-1.4,1.3-2.8,2.4-6,5.2-7.8,4.8-3.5,11-2.1,16.5-2.3,0,13.7,0,27.4,0,41.1.2,4.6-3.6,8.6-7.9,9.7-1.8.8-4.5.8-5,3.1,15.4.2,30.9.5,46.3-.2-2.1-3.3-7-2.4-9.6-5.2-5.8-4.8-2.6-13.1-3.7-19.5,0-.5,0-1.3,0-1.8.4-9.1,0-18.1.2-27.2,5.9.2,12.9-1.2,17.6,3.4,3,2.2,2.6,7,6.1,8.7,1.2-6.2.2-12.7.5-19-22.9,0-45.8,0-68.7,0Z"/>
  </g>
</svg>